PathFileType	4	(X/Y/Z)	/Users/itak/Documents/Research/Walk-IL/dataset/trc/00117_00007.trc
DataRate	CameraRate	NumFrames	NumMarkers	Units	OrigDataRate	OrigDataStartFrame	OrigNumFrames
100.000000	100.000000	4	53	mm	100.000000	328	526
Frame#	Time	RPSI			LPSI			L3			STRN			T10			C7			CLAV			RBAK			LBAK			LSHO			LUPA			LAEL			LAOL			LWTS			LWPS			LFRA			LIFD			LHPS			LHTS			RSHO			RUPA			RAEL			RAOL			RWTS			RWPS			RFRA			RIFD			RHTS			RHPS			RBHD			LFHD			RFHD			LBHD			LHIP			RHIP			RASI			LASI			LKNE			LTHI			LANK			LTIP			LTOE			LMT1			LMT5			LHEE			RKNE			RTHI			RANK			RTIP			RTOE			RMT1			RMT5			RHEE			
		X1	Y1	Z1	X2	Y2	Z2	X3	Y3	Z3	X4	Y4	Z4	X5	Y5	Z5	X6	Y6	Z6	X7	Y7	Z7	X8	Y8	Z8	X9	Y9	Z9	X10	Y10	Z10	X11	Y11	Z11	X12	Y12	Z12	X13	Y13	Z13	X14	Y14	Z14	X15	Y15	Z15	X16	Y16	Z16	X17	Y17	Z17	X18	Y18	Z18	X19	Y19	Z19	X20	Y20	Z20	X21	Y21	Z21	X22	Y22	Z22	X23	Y23	Z23	X24	Y24	Z24	X25	Y25	Z25	X26	Y26	Z26	X27	Y27	Z27	X28	Y28	Z28	X29	Y29	Z29	X30	Y30	Z30	X31	Y31	Z31	X32	Y32	Z32	X33	Y33	Z33	X34	Y34	Z34	X35	Y35	Z35	X36	Y36	Z36	X37	Y37	Z37	X38	Y38	Z38	X39	Y39	Z39	X40	Y40	Z40	X41	Y41	Z41	X42	Y42	Z42	X43	Y43	Z43	X44	Y44	Z44	X45	Y45	Z45	X46	Y46	Z46	X47	Y47	Z47	X48	Y48	Z48	X49	Y49	Z49	X50	Y50	Z50	X51	Y51	Z51	X52	Y52	Z52	X53	Y53	Z53	

329	3.28	-1068.31787109375	1108.927124023438	-303.7137145996094	-1045.679809570312	1113.486083984375	-437.5434875488281	-1063.477172851562	1156.84521484375	-377.5790710449219	-804.8616943359375	1333.151733398438	-343.6324768066406	-1060.237060546875	1317.201049804688	-389.6838989257812	-968.0628051757812	1600.606323242188	-404.9232482910156	-811.8870239257812	1473.350341796875	-354.2107543945312	-1066.263671875	1431.06103515625	-325.1748657226562	-956.2493286132812	1577.825805664062	-506.2752075195312	-858.7745971679688	1548.5986328125	-549.513427734375	-862.437255859375	1417.435424804688	-618.8073120117188	-824.20703125	1200.573608398438	-632.7239379882812	-904.873779296875	1180.681274414062	-602.2166748046875	-707.63623046875	964.4393310546875	-542.4105834960938	-767.0447998046875	924.1995239257812	-593.3167724609375	-791.1248779296875	1087.970092773438	-625.0328369140625	-671.6248779296875	777.5797729492188	-502.3421630859375	-726.050537109375	855.99951171875	-578.7066650390625	-673.3252563476562	880.105712890625	-541.079345703125	-954.2846069335938	1584.050903320312	-214.3358306884766	-993.2434692382812	1517.00537109375	-155.1339874267578	-1057.342529296875	1231.146240234375	-127.5494766235352	-1039.908569335938	1223.163696289062	-222.902587890625	-938.7132568359375	977.7869873046875	-91.98314666748047	-1018.743957519531	968.1705322265625	-77.09483337402344	-1046.451293945312	1156.671264648438	-102.7168045043945	-928.6362915039062	780.4788818359375	-97.54430389404297	-920.2202758789062	867.740234375	-77.02577972412109	-992.1874389648438	866.2567138671875	-61.20249557495117	-924.6897583007812	1763.529052734375	-315.6351318359375	-749.8295288085938	1814.208374023438	-439.1132202148438	-759.3638916015625	1826.829223632812	-310.0445861816406	-922.6903076171875	1754.900512695312	-450.8866577148438	-939.30029296875	1019.411743164062	-529.9324951171875	-953.005615234375	1018.8291015625	-166.7888488769531	-869.3594360351562	1089.936767578125	-213.9546203613281	-835.84423828125	1079.2314453125	-475.5370178222656	-910.7235107421875	516.0646362304688	-472.0722045898438	-930.1881713867188	662.584228515625	-508.1004943847656	-1118.398803710938	41.30799865722656	-460.7577514648438	-1049.4404296875	280.8423461914062	-497.3135070800781	-889.447509765625	35.08768463134766	-392.45068359375	-973.2764282226562	39.54654312133789	-363.3273010253906	-990.5164794921875	34.77292633056641	-480.5544128417969	-1192.8349609375	49.78225708007812	-403.4287414550781	-756.326416015625	570.8788452148438	-169.0926666259766	-863.1168823242188	828.5755004882812	-149.7384490966797	-756.8303833007812	38.652587890625	-177.7386779785156	-757.14306640625	432.9574890136719	-154.4359130859375	-530.81640625	94.77751159667969	-198.0590057373047	-582.6142578125	85.94463348388672	-251.4127502441406	-625.925537109375	50.31833267211914	-146.2915802001953	-810.263671875	43.29476165771484	-232.0475769042969	
330	3.29	-1076.527465820312	1110.560546875	-304.4002075195312	-1053.862670898438	1115.203735351562	-438.2270202636719	-1071.656005859375	1158.482055664062	-378.2596130371094	-813.4426879882812	1335.2099609375	-344.2649536132812	-1068.749145507812	1318.76611328125	-390.1388549804688	-977.0853881835938	1602.292846679688	-405.4076538085938	-820.6328125	1475.397094726562	-354.9400634765625	-1074.936279296875	1432.707275390625	-325.4689331054688	-965.4891357421875	1579.5654296875	-506.7305908203125	-868.0712280273438	1550.538330078125	-550.2245483398438	-871.9681396484375	1419.398315429688	-619.5741577148438	-834.3650512695312	1202.497802734375	-633.8580932617188	-914.9142456054688	1182.82958984375	-602.9916381835938	-718.2759399414062	965.6904296875	-544.5479125976562	-778.1651000976562	925.8313598632812	-595.2578735351562	-801.6533813476562	1089.77734375	-626.5429077148438	-682.853759765625	778.6166381835938	-505.0975952148438	-737.3822631835938	857.4292602539062	-581.0171508789062	-684.2775268554688	881.2328491210938	-543.5980834960938	-962.9412841796875	1586.015991210938	-214.8965759277344	-1001.695007324219	1518.9619140625	-155.5400543212891	-1065.157104492188	1232.919799804688	-127.8355026245117	-1048.23193359375	1225.144165039062	-223.3375244140625	-946.3475952148438	979.4141845703125	-93.49953460693359	-1026.272094726562	969.88525390625	-77.94089508056641	-1054.12109375	1158.427368164062	-103.209358215332	-936.6539306640625	782.068115234375	-99.67710113525391	-927.8554077148438	869.3479614257812	-79.0390625	-999.73681640625	867.8793334960938	-62.47505569458008	-932.7989501953125	1765.833740234375	-316.3878479003906	-757.8280639648438	1815.372924804688	-440.193359375	-767.0553588867188	1828.091186523438	-311.1177062988281	-931.0396118164062	1757.132202148438	-451.6506652832031	-947.5291748046875	1021.151672363281	-530.6463623046875	-961.0286254882812	1020.716430664062	-167.4488220214844	-877.5308837890625	1091.853759765625	-214.7307891845703	-844.0538330078125	1081.215087890625	-476.3155517578125	-917.8670654296875	518.0827026367188	-472.8921813964844	-937.966064453125	664.34765625	-508.7856140136719	-1118.663696289062	40.76735687255859	-460.5159912109375	-1053.555419921875	281.3255004882812	-497.4931030273438	-889.5045166015625	35.28510665893555	-392.611328125	-973.365234375	39.48503112792969	-363.2800903320312	-990.5586547851562	34.79427719116211	-480.55908203125	-1192.928344726562	48.64365386962891	-402.9063415527344	-762.9990234375	573.19970703125	-169.2021179199219	-870.267333984375	830.908447265625	-150.6668701171875	-779.5745849609375	41.09771728515625	-177.3048248291016	-767.5430908203125	434.7957458496094	-154.5198669433594	-552.0846557617188	93.49425506591797	-193.2515106201172	-603.0081176757812	84.20449066162109	-247.5283660888672	-649.5455322265625	51.73303604125977	-142.7453002929688	-831.7055053710938	45.7936897277832	-232.8706207275391	
331	3.3	-1084.524536132812	1112.252685546875	-304.8567504882812	-1061.93505859375	1116.9296875	-438.6885681152344	-1079.669067382812	1160.12060546875	-378.7242736816406	-821.8313598632812	1337.27587890625	-344.9012451171875	-1077.1240234375	1320.292724609375	-390.4659729003906	-986.0787353515625	1603.956176757812	-405.8134155273438	-829.297119140625	1477.42626953125	-355.6387329101562	-1083.501220703125	1434.292724609375	-325.6711120605469	-974.7127685546875	1581.2724609375	-507.1118774414062	-877.3698120117188	1552.486083984375	-550.8893432617188	-881.5144653320312	1421.369140625	-620.3072509765625	-844.628173828125	1204.414794921875	-635.0084228515625	-925.0552978515625	1185.002685546875	-603.7517700195312	-729.1190185546875	966.8745727539062	-546.73486328125	-789.5371704101562	927.4298706054688	-597.2273559570312	-812.3494873046875	1091.558349609375	-628.0801391601562	-694.4083862304688	779.5742797851562	-507.88623046875	-749.0042114257812	858.797119140625	-583.3524169921875	-695.4971313476562	882.267578125	-546.1627197265625	-971.5281372070312	1587.922241210938	-215.3869323730469	-1010.069274902344	1520.854736328125	-155.8816375732422	-1072.928955078125	1234.649047851562	-128.0520629882812	-1056.469970703125	1227.06494140625	-223.6946411132812	-953.9270629882812	981.0143432617188	-94.84197998046875	-1033.751586914062	971.5679931640625	-78.67816925048828	-1061.76171875	1160.1357421875	-103.6132659912109	-944.568359375	783.6370239257812	-101.557975769043	-935.3784790039062	870.9459838867188	-80.82843780517578	-1007.242126464844	869.4813842773438	-63.58457565307617	-940.9940795898438	1768.116943359375	-317.0656127929688	-765.9734497070312	1816.602905273438	-441.213623046875	-774.8878173828125	1829.412963867188	-312.1312866210938	-939.4981079101562	1759.337768554688	-452.3431396484375	-955.7433471679688	1022.856994628906	-531.2100219726562	-968.7604370117188	1022.619934082031	-167.9446868896484	-885.4403076171875	1093.744995117188	-215.4462432861328	-852.1931762695312	1083.132690429688	-477.05029296875	-924.8824462890625	520.0421142578125	-473.8049621582031	-945.6773681640625	666.0769653320312	-509.4801635742188	-1118.906005859375	40.27993011474609	-460.3849792480469	-1057.571044921875	281.8445129394531	-497.7562561035156	-889.60107421875	35.52405166625977	-392.7886962890625	-973.4522094726562	39.49958801269531	-363.3186950683594	-990.603271484375	34.79852676391602	-480.6203918457031	-1192.99609375	47.6596794128418	-402.4855041503906	-770.09814453125	575.2571411132812	-169.2981109619141	-877.510986328125	833.08837890625	-151.6616058349609	-803.1822509765625	43.7866325378418	-177.1561126708984	-778.458251953125	436.5168151855469	-154.6085052490234	-574.1881713867188	91.83478546142578	-188.9844512939453	-624.3695068359375	82.29608917236328	-244.1046447753906	-673.9447631835938	52.98528289794922	-139.7610168457031	-854.051025390625	48.74040603637695	-233.8658142089844	
332	3.31	-1092.33984375	1113.964599609375	-305.097900390625	-1069.91845703125	1118.633544921875	-438.9390258789062	-1087.565673828125	1161.728515625	-378.9823303222656	-830.0451049804688	1339.304321289062	-345.5408325195312	-1085.396118164062	1321.767578125	-390.6630859375	-995.025634765625	1605.568481445312	-406.14453125	-837.877197265625	1479.397827148438	-356.3113403320312	-1091.970947265625	1435.8037109375	-325.7845764160156	-983.9039916992188	1582.918090820312	-507.4217834472656	-886.6633911132812	1554.399658203125	-551.5112915039062	-891.061279296875	1423.306640625	-621.0099487304688	-854.974853515625	1206.284301757812	-636.1744995117188	-935.2706909179688	1187.1533203125	-604.5125122070312	-740.1589965820312	967.9593505859375	-548.9617919921875	-801.1248779296875	928.9593505859375	-599.220947265625	-823.183349609375	1093.275024414062	-629.638427734375	-706.2550659179688	780.4298706054688	-510.6904602050781	-760.8793334960938	860.0731201171875	-585.7007446289062	-706.9627075195312	883.1861572265625	-548.751708984375	-980.028564453125	1589.733032226562	-215.8038482666016	-1018.353759765625	1522.6484375	-156.1590881347656	-1080.648071289062	1236.297241210938	-128.2004241943359	-1064.618041992188	1228.884399414062	-223.9725646972656	-961.451171875	982.5553588867188	-96.00162506103516	-1041.184326171875	973.1766357421875	-79.31485748291016	-1069.364135742188	1161.75927734375	-103.9278869628906	-952.3670654296875	785.1575927734375	-103.1790008544922	-942.806396484375	872.4949340820312	-82.37390899658203	-1014.693054199219	871.0242309570312	-64.53511810302734	-949.2711791992188	1770.322387695312	-317.6713562011719	-774.2697143554688	1817.883422851562	-442.1804504394531	-782.8660278320312	1830.779907226562	-313.0893249511719	-948.0615234375	1761.462646484375	-452.9649963378906	-963.9501953125	1024.519775390625	-531.6361083984375	-976.24462890625	1024.486572265625	-168.3019104003906	-893.12548828125	1095.566040039062	-216.0990295410156	-860.2794189453125	1084.968139648438	-477.7434387207031	-931.7364501953125	521.9301147460938	-474.8185729980469	-953.286865234375	667.7598876953125	-510.1989440917969	-1119.121337890625	39.81710052490234	-460.3907775878906	-1061.445556640625	282.3809204101562	-498.1304321289062	-889.7515258789062	35.8081169128418	-392.9805297851562	-973.544677734375	39.58866119384766	-363.44189453125	-990.6464233398438	34.77870559692383	-480.7484436035156	-1193.043334960938	46.79281997680664	-402.2180480957031	-777.5865478515625	577.0112915039062	-169.3974761962891	-884.8203735351562	835.0879516601562	-152.7023620605469	-827.4413452148438	46.71086120605469	-177.210205078125	-789.8154907226562	438.0968627929688	-154.7128143310547	-597.001708984375	89.90299224853516	-185.4532928466797	-646.6000366210938	80.31498718261719	-241.2872314453125	-698.861083984375	54.10341262817383	-137.414306640625	-877.1619873046875	52.10169219970703	-234.8925476074219	
